<?xml version="1.0" encoding="UTF-8"?>
<svg version="1.1" xmlns="http://www.w3.org/2000/svg" width="300" height="300">
<path d="M0 0 C2.23676644 2.08250669 2.90207136 3.5103568 3.5 6.5 C2.77574606 10.12126968 0.98769091 10.89104171 -2 13 C-4.42807777 14.26007749 -6.82583606 15.42887705 -9.31640625 16.546875 C-10.03256104 16.87498169 -10.74871582 17.20308838 -11.48657227 17.5411377 C-13.84206082 18.61783515 -16.20213439 19.68404181 -18.5625 20.75 C-20.22212836 21.5057359 -21.88154901 22.26192809 -23.54077148 23.01855469 C-36.35736326 28.85138775 -49.22710027 34.56453577 -62.10571289 40.25878906 C-72.23434123 44.74178869 -82.29145363 49.35675561 -92.32177734 54.05639648 C-103.52172717 59.28481674 -114.81901411 64.28874545 -126.13085938 69.26953125 C-126.84726593 69.58594574 -127.56367249 69.90236023 -128.30178833 70.22836304 C-129.7261082 70.85675434 -131.15161792 71.48245605 -132.57833862 72.1053772 C-136.30416387 73.74574993 -139.95999408 75.46734821 -143.58056641 77.32958984 C-144.33473343 77.70963669 -145.08890045 78.08968353 -145.86592102 78.48124695 C-147.29884603 79.20816274 -148.72233793 79.95411948 -150.13346863 80.7224884 C-153.85349327 82.59286087 -156.24454052 83.28061732 -160.36987305 82.3449707 C-164 81 -164 81 -166 78.875 C-167.3344779 75.03837605 -168.13096204 71.97707482 -167 68 C-162.31233938 63.79604805 -155.86587918 61.47246292 -150.09375 59.14453125 C-149.2519519 58.79798996 -148.41015381 58.45144867 -147.54284668 58.09440613 C-144.86464965 56.99357703 -142.18252078 55.90274442 -139.5 54.8125 C-137.76404174 54.10159767 -136.02836268 53.39001318 -134.29296875 52.67773438 C-131.64183632 51.5899052 -128.9904095 50.50283889 -126.33778381 49.4186554 C-119.59691943 46.66264732 -112.87217328 43.86936263 -106.15234375 41.0625 C-94.14455614 36.0496487 -82.109835 31.10446386 -70.0625 26.1875 C-69.0131427 25.75889679 -67.9637854 25.33029358 -66.88262939 24.88870239 C-51.91541793 18.77824572 -36.92046466 12.74592803 -21.85961914 6.86987305 C-20.6452417 6.39590088 -19.43086426 5.92192871 -18.1796875 5.43359375 C-17.08785156 5.00747803 -15.99601563 4.5813623 -14.87109375 4.14233398 C-12.49490197 3.1969087 -10.14591669 2.21542322 -7.8046875 1.1875 C-4.87935402 -0.0510813 -3.12599547 -0.60783245 0 0 Z " fill="#A3A1A2" transform="translate(234,113)"/>
<path d="M0 0 C-5.13636921 5.40849473 -9.63997133 7.14108317 -17 8 C-17 8.66 -17 9.32 -17 10 C-20.10045423 11.34208754 -23.20592989 12.67213754 -26.3125 14 C-27.19357422 14.3815625 -28.07464844 14.763125 -28.98242188 15.15625 C-29.82998047 15.5171875 -30.67753906 15.878125 -31.55078125 16.25 C-32.33106689 16.58515625 -33.11135254 16.9203125 -33.9152832 17.265625 C-36 18 -36 18 -39 18 C-39 18.66 -39 19.32 -39 20 C-50.52164009 25.55580866 -50.52164009 25.55580866 -56 26 C-56 26.66 -56 27.32 -56 28 C-56.81984375 28.26554687 -57.6396875 28.53109375 -58.484375 28.8046875 C-59.56203125 29.15789062 -60.6396875 29.51109375 -61.75 29.875 C-62.81734375 30.22304687 -63.8846875 30.57109375 -64.984375 30.9296875 C-67.91208235 31.8932137 -67.91208235 31.8932137 -70.1875 33.125 C-72.79668695 34.38460749 -75.15013534 34.1295393 -78 34 C-78 34.66 -78 35.32 -78 36 C-96.3378942 45.40074632 -96.3378942 45.40074632 -103.4375 46.5625 C-104.283125 46.706875 -105.12875 46.85125 -106 47 C-106.33 47.66 -106.66 48.32 -107 49 C-109 49.66666667 -111 50.33333333 -113 51 C-114.36161311 51.96113866 -115.69855198 52.95884159 -117 54 C-120.13562545 55.86177761 -121.12808566 56 -125 56 C-125.125 53.625 -125.125 53.625 -125 51 C-124.34 50.34 -123.68 49.68 -123 49 C-121.68 49 -120.36 49 -119 49 C-119 48.01 -119 47.02 -119 46 C-117.3603279 44.63360658 -115.68889872 43.3050581 -114 42 C-113.44795898 41.20819336 -112.89591797 40.41638672 -112.32714844 39.60058594 C-109.28287546 36.19861408 -106.19192844 34.95009574 -102.015625 33.265625 C-101.24120056 32.94213074 -100.46677612 32.61863647 -99.66888428 32.28533936 C-98.03436149 31.60639512 -96.39692694 30.9344237 -94.75683594 30.26904297 C-92.26487696 29.25604757 -89.78460432 28.21785825 -87.3046875 27.17578125 C-85.70896534 26.51669691 -84.11262956 25.85909589 -82.515625 25.203125 C-81.78200745 24.89586487 -81.04838989 24.58860474 -80.2925415 24.27203369 C-75.49086385 22.34318502 -71.15935631 21.44604967 -66 21 C-66 21.66 -66 22.32 -66 23 C-65.43152344 22.73445313 -64.86304688 22.46890625 -64.27734375 22.1953125 C-59.56080051 20.03782861 -55.00039651 18.35427406 -50 17 C-49.505 16.505 -49.505 16.505 -49 16 C-47.00041636 15.95919217 -44.99954746 15.95745644 -43 16 C-42.505 14.515 -42.505 14.515 -42 13 C-38.8501952 10.35822823 -36.22660954 9.8284319 -32.25 9.5625 C-27.60587091 9.23077649 -24.1752697 8.00157386 -20.015625 5.97265625 C-17.42250021 4.72132278 -14.72983182 3.90994394 -12 3 C-9.67115586 1.92607705 -7.35484083 0.83319509 -5.05078125 -0.29296875 C-3 -1 -3 -1 0 0 Z " fill="#6C6B69" transform="translate(202,132)"/>
<path d="M0 0 C1.32 0.33 2.64 0.66 4 1 C2.35 2.65 0.7 4.3 -1 6 C0.98 5.34 2.96 4.68 5 4 C4 7 4 7 1.44995117 8.48291016 C0.32564697 8.99644043 -0.79865723 9.5099707 -1.95703125 10.0390625 C-2.56781021 10.32167938 -3.17858917 10.60429626 -3.80787659 10.89547729 C-5.80465791 11.81613789 -7.80798857 12.72130682 -9.8125 13.625 C-11.18532168 14.25007356 -12.5578795 14.87572695 -13.93017578 15.50195312 C-15.99470602 16.44333791 -18.05979095 17.38335407 -20.12713623 18.31854248 C-24.16933915 20.14961755 -28.17534121 22.03823053 -32.16015625 23.9921875 C-33.05436279 24.42192871 -33.94856934 24.85166992 -34.86987305 25.29443359 C-36.49045967 26.07432413 -38.10333527 26.87053647 -39.70629883 27.68603516 C-43.59068757 29.51596771 -46.15581319 30.30856914 -50.4140625 29.3515625 C-54 28 -54 28 -56 25.875 C-57.31998742 22.08003616 -58.18856469 18.93511284 -57 15 C-51.89955721 9.30135712 -41.15496751 6.32667648 -34 4 C-33.34 4.33 -32.68 4.66 -32 5 C-32.99 5.33 -33.98 5.66 -35 6 C-35.33 6.99 -35.66 7.98 -36 9 C-36.66 9 -37.32 9 -38 9 C-38.33 9.99 -38.66 10.98 -39 12 C-39.66 12 -40.32 12 -41 12 C-41 12.99 -41 13.98 -41 15 C-42.2065625 15.3403125 -42.2065625 15.3403125 -43.4375 15.6875 C-44.283125 16.120625 -45.12875 16.55375 -46 17 C-46.69913961 19.53644637 -46.69913961 19.53644637 -47 22 C-45.39214223 21.40572612 -43.78882291 20.79916412 -42.1875 20.1875 C-41.29417969 19.85105469 -40.40085937 19.51460937 -39.48046875 19.16796875 C-37.05311247 18.02500886 -35.84135445 16.88417665 -34 15 C-31.3125 14.8125 -31.3125 14.8125 -29 15 C-28.67 14.01 -28.34 13.02 -28 12 C-26.11205416 11.49430022 -24.21915901 11.00192645 -22.30859375 10.58984375 C-18.32446848 9.57190312 -14.71076549 7.74255541 -11 6 C-9.35645577 5.24499687 -7.71067185 4.4948469 -6.0625 3.75 C-5.33160156 3.41484375 -4.60070312 3.0796875 -3.84765625 2.734375 C-2 2 -2 2 0 2 C0 1.34 0 0.68 0 0 Z " fill="#9C9B9C" transform="translate(124,166)"/>
<path d="M0 0 C0 0.66 0 1.32 0 2 C-1.65 2.66 -3.3 3.32 -5 4 C-4.505 5.485 -4.505 5.485 -4 7 C-15.07627164 12.33354227 -26.2136529 17.53944763 -37.3913269 22.65692139 C-38.79779324 23.30262128 -40.20268693 23.95175772 -41.60598755 24.60430908 C-43.59773831 25.52948403 -45.59485844 26.44193946 -47.59375 27.3515625 C-48.75583984 27.88604004 -49.91792969 28.42051758 -51.11523438 28.97119141 C-54 30 -54 30 -57 29 C-59.63804589 29.39397335 -59.63804589 29.39397335 -62 30 C-60.47981376 25.43944127 -56.92667138 23.99305748 -52.84765625 21.890625 C-48.19286071 19.69451633 -44.12782922 18.436411 -39 18 C-39 17.34 -39 16.68 -39 16 C-38.32453125 15.73445312 -37.6490625 15.46890625 -36.953125 15.1953125 C-36.06109375 14.84210938 -35.1690625 14.48890625 -34.25 14.125 C-33.36828125 13.77695313 -32.4865625 13.42890625 -31.578125 13.0703125 C-29.0384159 12.06284557 -29.0384159 12.06284557 -26.859375 10.8671875 C-25 10 -25 10 -22 10 C-22 9.34 -22 8.68 -22 8 C-18.71057634 6.66108439 -15.41810891 5.32982297 -12.125 4 C-11.18785156 3.6184375 -10.25070313 3.236875 -9.28515625 2.84375 C-7.94130859 2.30234375 -7.94130859 2.30234375 -6.5703125 1.75 C-5.32918701 1.24726563 -5.32918701 1.24726563 -4.06298828 0.734375 C-2 0 -2 0 0 0 Z " fill="#9C9B9B" transform="translate(185,142)"/>
<path d="M0 0 C0.495 1.485 0.495 1.485 1 3 C-3.2036952 5.26352818 -7.38269447 6.87090057 -11.9140625 8.30859375 C-14.09216314 8.98729161 -14.09216314 8.98729161 -16.4375 10.125 C-19.06695169 11.02286155 -21.23807426 11.2300505 -24 11.4375 C-28.04642083 11.77520427 -30.75602128 12.38388813 -34 15 C-34.33 15.66 -34.66 16.32 -35 17 C-36.62624517 17.50820162 -38.25737059 18.00447964 -39.90625 18.43359375 C-42.13900711 19.03760453 -44.31077298 19.7540134 -46.5 20.5 C-50.30604133 21.78608944 -54.1282053 22.92907806 -58 24 C-58 23.34 -58 22.68 -58 22 C-58.99 21.67 -59.98 21.34 -61 21 C-55.39992857 18.66827031 -49.79889829 16.33886362 -44.19702148 14.01147461 C-42.29702573 13.22172606 -40.39727965 12.4313765 -38.49780273 11.64038086 C-32.33903081 9.07598307 -26.17412168 6.52722539 -20 4 C-19.29733002 3.71119965 -18.59466003 3.42239929 -17.87069702 3.12484741 C-16.06353474 2.38610983 -14.25073924 1.66119342 -12.4375 0.9375 C-11.47328125 0.55078125 -10.5090625 0.1640625 -9.515625 -0.234375 C-5.92312052 -1.32774593 -3.56031486 -1.07637426 0 0 Z " fill="#A5A3A4" transform="translate(194,131)"/>
<path d="M0 0 C-5.13636921 5.40849473 -9.63997133 7.14108317 -17 8 C-17 8.66 -17 9.32 -17 10 C-20.10045423 11.34208754 -23.20592989 12.67213754 -26.3125 14 C-27.19357422 14.3815625 -28.07464844 14.763125 -28.98242188 15.15625 C-29.82998047 15.5171875 -30.67753906 15.878125 -31.55078125 16.25 C-32.33106689 16.58515625 -33.11135254 16.9203125 -33.9152832 17.265625 C-36 18 -36 18 -39 18 C-39 18.66 -39 19.32 -39 20 C-50.52164009 25.55580866 -50.52164009 25.55580866 -56 26 C-56 26.66 -56 27.32 -56 28 C-57.65 28.33 -59.3 28.66 -61 29 C-58.16569547 25.7457985 -56.31392226 24.4793247 -52 24 C-52 23.01 -52 22.02 -52 21 C-52.680625 21.33 -53.36125 21.66 -54.0625 22 C-57.50840238 23.17307315 -60.38397422 23.14180493 -64 23 C-63.401875 22.71125 -62.80375 22.4225 -62.1875 22.125 C-59.80672208 20.95257974 -59.80672208 20.95257974 -57 19 C-54.67126625 18.31744011 -52.33817209 17.64949225 -50 17 C-49.67 16.67 -49.34 16.34 -49 16 C-47.00041636 15.95919217 -44.99954746 15.95745644 -43 16 C-42.67 15.01 -42.34 14.02 -42 13 C-38.8501952 10.35822823 -36.22660954 9.8284319 -32.25 9.5625 C-27.60587091 9.23077649 -24.1752697 8.00157386 -20.015625 5.97265625 C-17.42250021 4.72132278 -14.72983182 3.90994394 -12 3 C-9.67115586 1.92607705 -7.35484083 0.83319509 -5.05078125 -0.29296875 C-3 -1 -3 -1 0 0 Z " fill="#797778" transform="translate(202,132)"/>
<path d="M0 0 C2.23676644 2.08250669 2.90207136 3.5103568 3.5 6.5 C3 9 3 9 0.875 11.125 C-6.6 16 -6.6 16 -10 16 C-10 15.34 -10 14.68 -10 14 C-14.455 14.495 -14.455 14.495 -19 15 C-19 13.68 -19 12.36 -19 11 C-19.33 10.67 -19.66 10.34 -20 10 C-20.99 10.495 -21.98 10.99 -23 11.5 C-27.13477234 13.30103581 -30.53198453 13.23515871 -35 13 C-30.49412191 9.99608127 -25.5134819 8.1941221 -20.51269531 6.14941406 C-18.63496438 5.37908782 -16.76287025 4.59604743 -14.890625 3.8125 C-13.10785156 3.08160156 -13.10785156 3.08160156 -11.2890625 2.3359375 C-9.66025146 1.66377197 -9.66025146 1.66377197 -7.99853516 0.97802734 C-5.08163832 0.02662784 -3.03604723 -0.34386724 0 0 Z " fill="#AEADAD" transform="translate(234,113)"/>
<path d="M0 0 C-0.99 0.33 -1.98 0.66 -3 1 C-3.33 1.99 -3.66 2.98 -4 4 C-4.66 4 -5.32 4 -6 4 C-6.33 4.99 -6.66 5.98 -7 7 C-7.66 7 -8.32 7 -9 7 C-9 7.99 -9 8.98 -9 10 C-10.65 10.66 -12.3 11.32 -14 12 C-14 15.63 -14 19.26 -14 23 C-13.34 23.33 -12.68 23.66 -12 24 C-14.72233025 25.0470501 -16.15508914 24.96834915 -19.0625 24.375 C-22.65477963 22.6935074 -23.56006535 21.67983299 -25 18 C-25.68138353 15.12304731 -25.861478 12.85219067 -25 10 C-21.30439861 5.87096388 -5.12676802 -2.56338401 0 0 Z " fill="#9D9B9C" transform="translate(92,171)"/>
<path d="M0 0 C0 0.66 0 1.32 0 2 C7.04207705 1.2812193 7.04207705 1.2812193 14 0 C14 0.99 14 1.98 14 3 C12.18645564 3.90677218 10.37209584 4.8119348 8.5546875 5.7109375 C6.69327027 6.65018473 4.84601988 7.6176656 3.0078125 8.6015625 C1.97398437 9.14554688 0.94015625 9.68953125 -0.125 10.25 C-1.09695312 10.77078125 -2.06890625 11.2915625 -3.0703125 11.828125 C-6.26653892 13.10661557 -8.59023878 13.22259569 -12 13 C-12 13.66 -12 14.32 -12 15 C-17.90377651 17.8751252 -23.53287812 19.83805848 -30 21 C-28.328125 17.15625 -28.328125 17.15625 -25.375 15.75 C-24.59125 15.5025 -23.8075 15.255 -23 15 C-23 14.34 -23 13.68 -23 13 C-22.34 13 -21.68 13 -21 13 C-21 13.66 -21 14.32 -21 15 C-20.34 14.67 -19.68 14.34 -19 14 C-19 13.01 -19 12.02 -19 11 C-15.535 10.505 -15.535 10.505 -12 10 C-12 9.34 -12 8.68 -12 8 C-7.05 6.515 -7.05 6.515 -2 5 C-2 4.34 -2 3.68 -2 3 C-3.32 2.67 -4.64 2.34 -6 2 C-3 0 -3 0 0 0 Z " fill="#676566" transform="translate(136,153)"/>
<path d="M0 0 C-0.33 0.33 -0.66 0.66 -1 1 C-0.34 1.33 0.32 1.66 1 2 C1 2.66 1 3.32 1 4 C-5.625 7 -5.625 7 -9 7 C-9 7.66 -9 8.32 -9 9 C-11.31 9.33 -13.62 9.66 -16 10 C-16 10.99 -16 11.98 -16 13 C-15.34 13.33 -14.68 13.66 -14 14 C-15.32 14 -16.64 14 -18 14 C-18 13.34 -18 12.68 -18 12 C-20.97 12.66 -23.94 13.32 -27 14 C-26.67 13.34 -26.34 12.68 -26 12 C-26.99 11.34 -27.98 10.68 -29 10 C-25.19546679 8.4052241 -21.3868846 6.82059941 -17.57421875 5.24536133 C-16.27715915 4.70778991 -14.98125033 4.16743323 -13.68652344 3.62426758 C-11.82790387 2.84509896 -9.96478952 2.07667936 -8.1015625 1.30859375 C-6.98088379 0.84251709 -5.86020508 0.37644043 -4.70556641 -0.10375977 C-2 -1 -2 -1 0 0 Z " fill="#868485" transform="translate(133,154)"/>
<path d="M0 0 C0.99 0 1.98 0 3 0 C3 0.66 3 1.32 3 2 C0 4 0 4 -3 4 C-3 4.66 -3 5.32 -3 6 C-2.01 5.67 -1.02 5.34 0 5 C0.99 5.66 1.98 6.32 3 7 C1.31163219 10.37673562 -2.48069219 11.19083601 -5.8125 12.625 C-6.53759766 12.94984375 -7.26269531 13.2746875 -8.00976562 13.609375 C-8.71423828 13.91617188 -9.41871094 14.22296875 -10.14453125 14.5390625 C-10.78753174 14.81959473 -11.43053223 15.10012695 -12.09301758 15.38916016 C-14 16 -14 16 -18 16 C-18 14.02 -18 12.04 -18 10 C-17.30132812 9.66226563 -16.60265625 9.32453125 -15.8828125 8.9765625 C-14.97273438 8.53054687 -14.06265625 8.08453125 -13.125 7.625 C-12.22007813 7.18414062 -11.31515625 6.74328125 -10.3828125 6.2890625 C-7.90465528 5.09497301 -7.90465528 5.09497301 -6 3 C-3.375 2.875 -3.375 2.875 -1 3 C-0.67 2.01 -0.34 1.02 0 0 Z " fill="#949293" transform="translate(96,178)"/>
<path d="M0 0 C0 0.99 0 1.98 0 3 C-0.56589844 3.12117187 -1.13179687 3.24234375 -1.71484375 3.3671875 C-2.81505859 3.61855469 -2.81505859 3.61855469 -3.9375 3.875 C-4.66839844 4.03742188 -5.39929688 4.19984375 -6.15234375 4.3671875 C-8.20700294 4.82961523 -8.20700294 4.82961523 -9 7 C-11 7.66666667 -13 8.33333333 -15 9 C-16.36161311 9.96113866 -17.69855198 10.95884159 -19 12 C-22.13562545 13.86177761 -23.12808566 14 -27 14 C-27.125 11.625 -27.125 11.625 -27 9 C-24.92191323 6.92191323 -23.84070953 6.4694445 -21.125 5.5625 C-18.49960156 4.64808834 -17.05527416 4.04857426 -14.9375 2.1875 C-13 1 -13 1 -9.25 1.8125 C-8.1775 2.204375 -7.105 2.59625 -6 3 C-6 2.34 -6 1.68 -6 1 C-3 0 -3 0 0 0 Z " fill="#656462" transform="translate(104,174)"/>
<path d="M0 0 C2.0625 0.4375 2.0625 0.4375 4 1 C2.73308493 1.67408308 1.46129251 2.33900497 0.1875 3 C-0.52019531 3.37125 -1.22789062 3.7425 -1.95703125 4.125 C-4 5 -4 5 -7 5 C-7 5.66 -7 6.32 -7 7 C-8.32 7 -9.64 7 -11 7 C-11 7.99 -11 8.98 -11 10 C-12.24460783 10.67667998 -13.49596896 11.34094719 -14.75 12 C-15.44609375 12.37125 -16.1421875 12.7425 -16.859375 13.125 C-19 14 -19 14 -23 14 C-23 14.66 -23 15.32 -23 16 C-24.65 16.33 -26.3 16.66 -28 17 C-25.16569547 13.7457985 -23.31392226 12.4793247 -19 12 C-19 11.01 -19 10.02 -19 9 C-19.680625 9.33 -20.36125 9.66 -21.0625 10 C-24.50840238 11.17307315 -27.38397422 11.14180493 -31 11 C-30.401875 10.71125 -29.80375 10.4225 -29.1875 10.125 C-26.80672208 8.95257974 -26.80672208 8.95257974 -24 7 C-21.68060793 6.2863409 -19.34476551 5.6252708 -17 5 C-15.88625 4.67 -14.7725 4.34 -13.625 4 C-10.04248905 3.01172112 -6.45921942 2.21112805 -2.8203125 1.46484375 C-0.99303657 1.16309159 -0.99303657 1.16309159 0 0 Z " fill="#767475" transform="translate(169,144)"/>
<path d="M0 0 C0.8125 3.25 0.8125 3.25 1 7 C-2.20722763 10.69317121 -5.21691026 11.55506142 -10 12 C-10 11.34 -10 10.68 -10 10 C-8.35 9.67 -6.7 9.34 -5 9 C-6.32 9 -7.64 9 -9 9 C-10.32 9 -11.64 9 -13 9 C-13.33 7.68 -13.66 6.36 -14 5 C-13.236875 4.54625 -12.47375 4.0925 -11.6875 3.625 C-7.23840142 0.93484737 -5.27079743 -0.23425766 0 0 Z " fill="#9F9D9E" transform="translate(236,115)"/>
<path d="M0 0 C-1.24252679 0.84443568 -2.4943886 1.6751458 -3.75 2.5 C-4.44609375 2.9640625 -5.1421875 3.428125 -5.859375 3.90625 C-8 5 -8 5 -12 5 C-12 5.66 -12 6.32 -12 7 C-17.90377651 9.8751252 -23.53287812 11.83805848 -30 13 C-28.328125 9.15625 -28.328125 9.15625 -25.375 7.75 C-24.59125 7.5025 -23.8075 7.255 -23 7 C-23 6.34 -23 5.68 -23 5 C-22.34 5 -21.68 5 -21 5 C-21 5.66 -21 6.32 -21 7 C-20.34 6.67 -19.68 6.34 -19 6 C-19 5.01 -19 4.02 -19 3 C-16.586238 2.30048937 -14.16989766 1.61516081 -11.75 0.9375 C-11.06808594 0.73833984 -10.38617188 0.53917969 -9.68359375 0.33398438 C-3.41657839 -1.40009269 -3.41657839 -1.40009269 0 0 Z " fill="#5D5C5B" transform="translate(136,161)"/>
<path d="M0 0 C0.33 0.66 0.66 1.32 1 2 C1.66 2.33 2.32 2.66 3 3 C-0.3497658 6.3497658 -3.56756659 6.47927626 -8.07421875 6.7890625 C-10.00598803 6.7973509 -10.00598803 6.7973509 -11 8 C-13.0625 7.5625 -13.0625 7.5625 -15 7 C-15.33 8.32 -15.66 9.64 -16 11 C-17.32 11 -18.64 11 -20 11 C-20 10.34 -20 9.68 -20 9 C-21.65 8.67 -23.3 8.34 -25 8 C-20.66966929 5.11311286 -17.29043442 3.9544146 -12.125 3.5625 C-7.49282266 3.18804255 -4.14190351 2.07095175 0 0 Z " fill="#A4A2A4" transform="translate(214,122)"/>
<path d="M0 0 C2.475 0.495 2.475 0.495 5 1 C5.33 1.99 5.66 2.98 6 4 C1.80396597 6.25940294 -2.36722324 7.8663468 -6.890625 9.30078125 C-9.1484556 10.01097773 -9.1484556 10.01097773 -11.8125 11.25 C-14.32254566 12.11058708 -15.54402984 11.90961858 -18 11 C-13.97399885 7.65472368 -9.52440713 6.12911372 -4.6796875 4.28125 C-1.73245686 3.15268164 -1.73245686 3.15268164 0 0 Z " fill="#979696" transform="translate(189,130)"/>
<path d="M0 0 C0.33 0.99 0.66 1.98 1 3 C-0.32 3.33 -1.64 3.66 -3 4 C-3 4.99 -3 5.98 -3 7 C-2.34 7.33 -1.68 7.66 -1 8 C-2.32 8 -3.64 8 -5 8 C-5 7.34 -5 6.68 -5 6 C-7.97 6.66 -10.94 7.32 -14 8 C-13.67 7.34 -13.34 6.68 -13 6 C-13.99 5.34 -14.98 4.68 -16 4 C-5.62642369 -0.59225513 -5.62642369 -0.59225513 0 0 Z " fill="#737270" transform="translate(120,160)"/>
<path d="M0 0 C0.99 0 1.98 0 3 0 C3 0.66 3 1.32 3 2 C0 4 0 4 -3 4 C-3 4.66 -3 5.32 -3 6 C-2.01 5.67 -1.02 5.34 0 5 C0.99 5.66 1.98 6.32 3 7 C2 9 2 9 -0.3125 10.125 C-3 11 -3 11 -7 11 C-7.66 9.35 -8.32 7.7 -9 6 C-7.8125 4.5 -7.8125 4.5 -6 3 C-3.3125 2.8125 -3.3125 2.8125 -1 3 C-0.67 2.01 -0.34 1.02 0 0 Z " fill="#929191" transform="translate(96,178)"/>
<path d="M0 0 C-1.02808328 2.85308318 -1.78819823 3.87387085 -4.43359375 5.44921875 C-11.35803943 8.30363914 -17.50067606 9.83761306 -25 10 C-22.42018041 8.28012028 -20.25063609 7.1971796 -17.40234375 6.0546875 C-16.07686523 5.52294922 -16.07686523 5.52294922 -14.72460938 4.98046875 C-13.80486328 4.61566406 -12.88511719 4.25085938 -11.9375 3.875 C-11.01388672 3.50246094 -10.09027344 3.12992188 -9.13867188 2.74609375 C-8.25630859 2.39417969 -7.37394531 2.04226562 -6.46484375 1.6796875 C-5.656521 1.35726074 -4.84819824 1.03483398 -4.01538086 0.70263672 C-2 0 -2 0 0 0 Z " fill="#B3B3B3" transform="translate(189,130)"/>
<path d="M0 0 C0.556875 0.185625 1.11375 0.37125 1.6875 0.5625 C4.399133 1.07551165 6.34371039 0.6640724 9 0 C7.625 2 7.625 2 6 4 C5.34 4 4.68 4 4 4 C4 4.66 4 5.32 4 6 C4.99 6.33 5.98 6.66 7 7 C6.67 7.66 6.34 8.32 6 9 C4.68 9 3.36 9 2 9 C2 8.01 2 7.02 2 6 C0.02 6.99 -1.96 7.98 -4 9 C-3.79375 8.401875 -3.5875 7.80375 -3.375 7.1875 C-2.69328085 4.71549154 -2.69328085 4.71549154 -5 2 C-1.125 1 -1.125 1 0 1 C0 0.67 0 0.34 0 0 Z " fill="#9B999A" transform="translate(202,127)"/>
<path d="M0 0 C-5.13636921 5.40849473 -9.63997133 7.14108317 -17 8 C-17 8.66 -17 9.32 -17 10 C-18.32 10.33 -19.64 10.66 -21 11 C-21 8.6875 -21 8.6875 -20 6 C-16.5 4.4375 -16.5 4.4375 -14.33203125 3.76171875 C-11.07009831 2.69626327 -8.05969738 1.17606456 -4.98046875 -0.328125 C-3 -1 -3 -1 0 0 Z " fill="#7E7C7D" transform="translate(202,132)"/>
<path d="M0 0 C-2.72294063 2.72294063 -5.29135602 3.02724092 -9 4 C-10.31345624 4.37163684 -11.62601062 4.74648071 -12.9375 5.125 C-13.948125 5.41375 -14.95875 5.7025 -16 6 C-16 5.34 -16 4.68 -16 4 C-16.99 3.67 -17.98 3.34 -19 3 C-12.38030575 -0.04505935 -7.33335988 -1.57143426 0 0 Z " fill="#8A898A" transform="translate(152,149)"/>
<path d="M0 0 C2.3125 0.1875 2.3125 0.1875 5 1 C7.60188256 4.31964326 8 5.69316041 8 10 C7.34 10 6.68 10 6 10 C6 9.34 6 8.68 6 8 C3.03 7.505 3.03 7.505 0 7 C0 4.69 0 2.38 0 0 Z " fill="#514F50" transform="translate(68,181)"/>
<path d="M0 0 C2.0625 0.4375 2.0625 0.4375 4 1 C2.73308493 1.67408308 1.46129251 2.33900497 0.1875 3 C-0.52019531 3.37125 -1.22789062 3.7425 -1.95703125 4.125 C-4 5 -4 5 -7 5 C-7 5.66 -7 6.32 -7 7 C-8.32 7 -9.64 7 -11 7 C-11 7.66 -11 8.32 -11 9 C-12.98 9.33 -14.96 9.66 -17 10 C-17 9.01 -17 8.02 -17 7 C-16.01 7 -15.02 7 -14 7 C-14 6.34 -14 5.68 -14 5 C-12.68 5.33 -11.36 5.66 -10 6 C-10 5.01 -10 4.02 -10 3 C-9.04287109 2.80083984 -9.04287109 2.80083984 -8.06640625 2.59765625 C-7.24011719 2.42105469 -6.41382813 2.24445313 -5.5625 2.0625 C-4.32693359 1.80146484 -4.32693359 1.80146484 -3.06640625 1.53515625 C-1.02338796 1.19247006 -1.02338796 1.19247006 0 0 Z " fill="#676566" transform="translate(169,144)"/>
<path d="M0 0 C1.32 0 2.64 0 4 0 C4 0.99 4 1.98 4 3 C-4.261959 7.59225513 -4.261959 7.59225513 -9 7 C-8.67 5.35 -8.34 3.7 -8 2 C-6.865625 1.855625 -5.73125 1.71125 -4.5625 1.5625 C-1.19222799 1.38828522 -1.19222799 1.38828522 0 0 Z " fill="#5A5859" transform="translate(146,153)"/>
<path d="M0 0 C-3.12488567 2.52394612 -6.31314387 4.39701907 -10 6 C-12 5 -12 5 -13 2 C-8.22169095 -0.91360308 -5.44893869 -1.19876651 0 0 Z " fill="#A3A1A2" transform="translate(181,148)"/>
<path d="M0 0 C-5.01372252 3.52913975 -8.83543922 5.61471495 -15 6 C-15 5.01 -15 4.02 -15 3 C-13.25531628 2.29911844 -11.50398839 1.61475991 -9.75 0.9375 C-8.77546875 0.55464844 -7.8009375 0.17179688 -6.796875 -0.22265625 C-3.95992605 -1.01113787 -2.70590448 -1.02437812 0 0 Z " fill="#555354" transform="translate(136,161)"/>
<path d="M0 0 C0.33 0 0.66 0 1 0 C1 2.31 1 4.62 1 7 C3.97 7.495 3.97 7.495 7 8 C7 8.66 7 9.32 7 10 C7.66 10 8.32 10 9 10 C8.67 10.99 8.34 11.98 8 13 C5.6875 13.3125 5.6875 13.3125 3 13 C0.30647994 10.02783994 -0.17370973 7.56946196 -0.1875 3.6875 C-0.125625 2.470625 -0.06375 1.25375 0 0 Z " fill="#918E8F" transform="translate(67,181)"/>
<path d="M0 0 C1.32 0.33 2.64 0.66 4 1 C2.35 2.65 0.7 4.3 -1 6 C0.98 5.34 2.96 4.68 5 4 C4.67 4.99 4.34 5.98 4 7 C-0.29 6.67 -4.58 6.34 -9 6 C-5.37542083 3.28156562 -4.19115285 2.58210456 0 2 C0 1.34 0 0.68 0 0 Z " fill="#8E8D8E" transform="translate(124,166)"/>
<path d="M0 0 C-1.22934015 3.68802044 -2.93859378 4.72356973 -6 7 C-6.66 6.67 -7.32 6.34 -8 6 C-8 5.34 -8 4.68 -8 4 C-9.32 3.67 -10.64 3.34 -12 3 C-10.3789897 2.30314502 -8.75303934 1.61777139 -7.125 0.9375 C-6.22007813 0.55464844 -5.31515625 0.17179688 -4.3828125 -0.22265625 C-2 -1 -2 -1 0 0 Z " fill="#878786" transform="translate(104,166)"/>
<path d="M0 0 C0.33 0.66 0.66 1.32 1 2 C-1 2.66666667 -3 3.33333333 -5 4 C-5.99 4.37125 -6.98 4.7425 -8 5.125 C-11.14874118 6.04338284 -13.73858803 6.15530533 -17 6 C-11.97470313 2.64980209 -6.22982527 -0.80384842 0 0 Z " fill="#C4C3C4" transform="translate(234,113)"/>
<path d="M0 0 C0 0.99 0 1.98 0 3 C-9.41002278 6.44419134 -9.41002278 6.44419134 -14 6 C-14 5.34 -14 4.68 -14 4 C-11.29120665 2.64560332 -8.99066732 2.93498549 -6 3 C-6 2.34 -6 1.68 -6 1 C-3 0 -3 0 0 0 Z " fill="#5C5A5A" transform="translate(104,174)"/>
<path d="M0 0 C-2.62572307 3.24354027 -6.05241756 4.88100025 -10 6 C-12.72614973 6.22876781 -15.25647012 6.14439631 -18 6 C-14.87754953 3.91836635 -11.92965119 2.67424387 -8.4375 1.3125 C-7.28121094 0.85488281 -6.12492188 0.39726563 -4.93359375 -0.07421875 C-2 -1 -2 -1 0 0 Z " fill="#C3C2C4" transform="translate(217,120)"/>
<path d="M0 0 C-0.33 2.31 -0.66 4.62 -1 7 C-2.32 7 -3.64 7 -5 7 C-5 6.34 -5 5.68 -5 5 C-6.65 4.67 -8.3 4.34 -10 4 C-6.86268382 1.90845588 -3.85464592 0 0 0 Z " fill="#B7B5B6" transform="translate(199,126)"/>
<path d="M0 0 C-0.99 0.33 -1.98 0.66 -3 1 C-3.33 1.99 -3.66 2.98 -4 4 C-5.65 4.33 -7.3 4.66 -9 5 C-9 4.01 -9 3.02 -9 2 C-8.01 2 -7.02 2 -6 2 C-6 1.34 -6 0.68 -6 0 C-2.25 -1.125 -2.25 -1.125 0 0 Z M2 4 C-4.75 7 -4.75 7 -7 7 C-6.67 6.01 -6.34 5.02 -6 4 C-2.71303767 3.20046862 -1.28976808 2.90341064 2 4 Z " fill="#656363" transform="translate(111,169)"/>
<path d="M0 0 C0 0.66 0 1.32 0 2 C-1.65 2.66 -3.3 3.32 -5 4 C-4.67 4.66 -4.34 5.32 -4 6 C-5.60875 5.938125 -5.60875 5.938125 -7.25 5.875 C-10.82321958 5.99410732 -11.99141147 6.44383352 -15 8 C-17.11328125 7.55859375 -17.11328125 7.55859375 -19 7 C-16.2100561 5.82905995 -13.41821403 4.66309073 -10.625 3.5 C-9.43390625 2.99919922 -9.43390625 2.99919922 -8.21875 2.48828125 C-7.45820313 2.17246094 -6.69765625 1.85664063 -5.9140625 1.53125 C-5.2123291 1.23798828 -4.5105957 0.94472656 -3.78759766 0.64257812 C-2 0 -2 0 0 0 Z " fill="#949293" transform="translate(185,142)"/>
<path d="M0 0 C0.66 0.66 1.32 1.32 2 2 C1.67 2.99 1.34 3.98 1 5 C-0.32 4.67 -1.64 4.34 -3 4 C-2.67 3.34 -2.34 2.68 -2 2 C-1.67 2.33 -1.34 2.66 -1 3 C-0.67 2.01 -0.34 1.02 0 0 Z M-9 3 C-7.35 3 -5.7 3 -4 3 C-3.375 5.375 -3.375 5.375 -3 8 C-3.66 8.66 -4.32 9.32 -5 10 C-9 5.25 -9 5.25 -9 3 Z " fill="#787777" transform="translate(81,175)"/>
<path d="M0 0 C-1 3 -1 3 -3 5 C-3 5.66 -3 6.32 -3 7 C-5.64 6.67 -8.28 6.34 -11 6 C-11 5.34 -11 4.68 -11 4 C-9.5437455 3.32880451 -8.08492133 2.66318193 -6.625 2 C-5.81289062 1.62875 -5.00078125 1.2575 -4.1640625 0.875 C-2 0 -2 0 0 0 Z " fill="#979595" transform="translate(141,161)"/>
<path d="M0 0 C-0.99 0.33 -1.98 0.66 -3 1 C-3.33 1.99 -3.66 2.98 -4 4 C-8.455 4.495 -8.455 4.495 -13 5 C-10.34674743 -0.30650514 -5.32922911 -0.31348407 0 0 Z " fill="#868485" transform="translate(172,142)"/>
<path d="M0 0 C0 0.99 0 1.98 0 3 C1.32 3.33 2.64 3.66 4 4 C-1.625 6.125 -1.625 6.125 -5 5 C-5.99 5 -6.98 5 -8 5 C-8 4.34 -8 3.68 -8 3 C-2.25 0 -2.25 0 0 0 Z " fill="#A7A6A6" transform="translate(204,133)"/>
<path d="M0 0 C-1.09601169 1.00893131 -2.20213918 2.00688225 -3.3125 3 C-3.92738281 3.556875 -4.54226562 4.11375 -5.17578125 4.6875 C-7 6 -7 6 -10 6 C-10 5.34 -10 4.68 -10 4 C-10.66 3.67 -11.32 3.34 -12 3 C-10.5682384 2.30062798 -9.12932968 1.61587282 -7.6875 0.9375 C-6.48673828 0.36322266 -6.48673828 0.36322266 -5.26171875 -0.22265625 C-3 -1 -3 -1 0 0 Z " fill="#8B898A" transform="translate(202,132)"/>
<path d="M0 0 C0.66 0 1.32 0 2 0 C1.75 3.375 1.75 3.375 1 7 C-1.82299691 9.23892859 -3.2791079 9 -7 9 C-7 8.34 -7 7.68 -7 7 C-5.35 6.67 -3.7 6.34 -2 6 C-1.855625 5.195625 -1.71125 4.39125 -1.5625 3.5625 C-1 1 -1 1 0 0 Z " fill="#9C9B9B" transform="translate(233,118)"/>
<path d="M0 0 C3 1 3 1 4 3 C-1.75 6 -1.75 6 -4 6 C-4.33 5.01 -4.66 4.02 -5 3 C-2.6875 1.4375 -2.6875 1.4375 0 0 Z " fill="#A6A4A5" transform="translate(142,162)"/>
<path d="M0 0 C-1.24460783 0.67667998 -2.49596896 1.34094719 -3.75 2 C-4.44609375 2.37125 -5.1421875 2.7425 -5.859375 3.125 C-8 4 -8 4 -12 4 C-12 4.66 -12 5.32 -12 6 C-13.65 6.33 -15.3 6.66 -17 7 C-13.25070484 2.22816979 -5.98299009 -1.99433003 0 0 Z " fill="#807E7F" transform="translate(158,154)"/>
<path d="M0 0 C-1.875 3.875 -1.875 3.875 -3 5 C-4.66617115 5.04063832 -6.33388095 5.042721 -8 5 C-8 4.01 -8 3.02 -8 2 C-5.09399739 0.74335022 -3.20395416 0 0 0 Z " fill="#727071" transform="translate(183,139)"/>
<path d="M0 0 C1.98 0 3.96 0 6 0 C6.33 2.31 6.66 4.62 7 7 C6.01 7.66 5.02 8.32 4 9 C3.67 8.01 3.34 7.02 3 6 C3.66 5.01 4.32 4.02 5 3 C4.34 3 3.68 3 3 3 C3 2.34 3 1.68 3 1 C2.01 0.67 1.02 0.34 0 0 Z " fill="#ABAAAB" transform="translate(230,115)"/>
<path d="M0 0 C0 1.32 0 2.64 0 4 C-3.75 6 -3.75 6 -6 6 C-6 5.34 -6 4.68 -6 4 C-6.99 3.67 -7.98 3.34 -9 3 C-2.25 0 -2.25 0 0 0 Z " fill="#959595" transform="translate(142,149)"/>
<path d="M0 0 C1.32 0 2.64 0 4 0 C4 0.99 4 1.98 4 3 C-0.25566547 4.16063604 -3.6835078 3.76173392 -8 3 C-8 2.67 -8 2.34 -8 2 C-6.865625 1.855625 -5.73125 1.71125 -4.5625 1.5625 C-1.19222799 1.38828522 -1.19222799 1.38828522 0 0 Z " fill="#605E5F" transform="translate(146,153)"/>
<path d="M0 0 C1.65 0.33 3.3 0.66 5 1 C5.33 1.99 5.66 2.98 6 4 C3.69 4.66 1.38 5.32 -1 6 C-0.67 4.02 -0.34 2.04 0 0 Z " fill="#A4A2A3" transform="translate(189,130)"/>
<path d="M0 0 C0.66 0.33 1.32 0.66 2 1 C1.01 1.33 0.02 1.66 -1 2 C-1 2.66 -1 3.32 -1 4 C-3.95664519 5.4783226 -6.74229737 5.06032783 -10 5 C-6.76527494 2.84351662 -3.62848922 1.38542316 0 0 Z " fill="#949492" transform="translate(114,160)"/>
<path d="M0 0 C2 3 2 3 2 7 C1.34 7 0.68 7 0 7 C0 6.34 0 5.68 0 5 C-2.97 4.505 -2.97 4.505 -6 4 C-2.25 2 -2.25 2 0 2 C0 1.34 0 0.68 0 0 Z " fill="#6A676A" transform="translate(74,184)"/>
<path d="M0 0 C0.66 0.33 1.32 0.66 2 1 C2.33 1.99 2.66 2.98 3 4 C-0.63 4 -4.26 4 -8 4 C-5.31143836 2.20762558 -3.0466145 1.01553817 0 0 Z " fill="#A7A6A6" transform="translate(150,145)"/>
<path d="M0 0 C-3.36423277 2.96052484 -6.69159287 3.92289822 -11 5 C-11 4.34 -11 3.68 -11 3 C-7.14243493 0.84694043 -4.44870215 -0.39253254 0 0 Z " fill="#9B9A9B" transform="translate(91,189)"/>
<path d="M0 0 C0.99 0 1.98 0 3 0 C3 0.66 3 1.32 3 2 C1.54618103 2.69699552 0.08677047 3.38233866 -1.375 4.0625 C-2.18710938 4.44535156 -2.99921875 4.82820312 -3.8359375 5.22265625 C-4.55007812 5.47917969 -5.26421875 5.73570312 -6 6 C-6.66 5.67 -7.32 5.34 -8 5 C-6 3 -6 3 -3.375 2.875 C-2.59125 2.91625 -1.8075 2.9575 -1 3 C-0.67 2.01 -0.34 1.02 0 0 Z " fill="#7E7C7C" transform="translate(96,178)"/>
<path d="M0 0 C0.66 0.33 1.32 0.66 2 1 C2 1.66 2 2.32 2 3 C-2.43076923 5.09230769 -2.43076923 5.09230769 -5.3125 4.625 C-5.869375 4.41875 -6.42625 4.2125 -7 4 C-4.61426621 2.10786631 -2.92824652 0.97608217 0 0 Z " fill="#918F90" transform="translate(178,137)"/>
<path d="M0 0 C0.66 0.33 1.32 0.66 2 1 C0 4 0 4 -2.3828125 4.51171875 C-3.28773438 4.56972656 -4.19265625 4.62773437 -5.125 4.6875 C-6.03507813 4.75324219 -6.94515625 4.81898438 -7.8828125 4.88671875 C-8.93082031 4.94279297 -8.93082031 4.94279297 -10 5 C-6.76527494 2.84351662 -3.62848922 1.38542316 0 0 Z " fill="#B9B9B9" transform="translate(174,135)"/>
<path d="M0 0 C0.66 0.33 1.32 0.66 2 1 C1.34 2.32 0.68 3.64 0 5 C-3.10551666 5 -4.35261084 4.4606285 -7 3 C-4.69631264 1.93347808 -2.35981813 0.93578995 0 0 Z " fill="#999897" transform="translate(80,174)"/>
<path d="M0 0 C-3.20336822 2.83374881 -5.78087253 3.5205537 -10 4 C-7.26634436 -0.10048346 -4.7993062 -1.59976873 0 0 Z " fill="#7C7B79" transform="translate(116,164)"/>
<path d="M0 0 C0 0.66 0 1.32 0 2 C0.66 2 1.32 2 2 2 C2 2.66 2 3.32 2 4 C0.68 4.33 -0.64 4.66 -2 5 C-2 4.34 -2 3.68 -2 3 C-3.32 2.67 -4.64 2.34 -6 2 C-3 0 -3 0 0 0 Z " fill="#737373" transform="translate(136,153)"/>
<path d="M0 0 C0.66 0.33 1.32 0.66 2 1 C0.4375 3 0.4375 3 -2 5 C-5.75 5.25 -5.75 5.25 -9 5 C-6.32239719 2.32239719 -3.52050129 1.32018799 0 0 Z " fill="#918F90" transform="translate(113,172)"/>
<path d="M0 0 C1.02104551 0.97850195 2.0206121 1.97980427 3 3 C3 3.33 3 3.66 3 4 C0.125 4.125 0.125 4.125 -3 4 C-3.66 3.34 -4.32 2.68 -5 2 C-3.35 1.34 -1.7 0.68 0 0 Z " fill="#8E8D8D" transform="translate(156,144)"/>
<path d="M0 0 C0.66 0.33 1.32 0.66 2 1 C1.01 1.33 0.02 1.66 -1 2 C-1.33 2.99 -1.66 3.98 -2 5 C-4.97 4.505 -4.97 4.505 -8 4 C-5.31143836 2.20762558 -3.0466145 1.01553817 0 0 Z " fill="#9B9A99" transform="translate(90,170)"/>
<path d="M0 0 C0.66 0.33 1.32 0.66 2 1 C1.34 2.32 0.68 3.64 0 5 C-0.99 5 -1.98 5 -3 5 C-3 3.68 -3 2.36 -3 1 C-2.01 0.67 -1.02 0.34 0 0 Z " fill="#595755" transform="translate(80,182)"/>
<path d="M0 0 C1.4540625 0.0309375 1.4540625 0.0309375 2.9375 0.0625 C0.22567788 2.66584924 -0.95383813 3.05706691 -4.8125 3.25 C-5.885 3.188125 -6.9575 3.12625 -8.0625 3.0625 C-7.423125 2.753125 -6.78375 2.44375 -6.125 2.125 C-2.0825 0.0425 -2.0825 0.0425 0 0 Z " fill="#706E6F" transform="translate(146.0625,151.9375)"/>
</svg>
